<svg version="1.1" xmlns="http://www.w3.org/2000/svg" width="1534" height="771">
<path d="M0 0 C3.83577304 -0.00764041 5.85697679 2.49998453 8.48144531 5.09707642 C9.05451416 5.67936005 9.62758301 6.26164368 10.21801758 6.86157227 C11.13837044 7.77885857 11.13837044 7.77885857 12.07731628 8.7146759 C14.10705509 10.74140336 16.12583427 12.7786851 18.14453125 14.81640625 C19.55635667 16.23129082 20.96877496 17.64558404 22.38175964 19.05931091 C25.34609432 22.02825208 28.30544867 25.00203812 31.26098633 27.97973633 C35.03341713 31.78032035 38.81434814 35.57229695 42.59863758 39.36106968 C46.22125766 42.98887325 49.83918904 46.6213391 53.45703125 50.25390625 C54.48295852 51.2826546 54.48295852 51.2826546 55.52961159 52.33218575 C57.48693258 54.296456 59.44085069 56.26404916 61.39379883 58.23266602 C61.96079498 58.80078003 62.52779114 59.36889404 63.11196899 59.95422363 C65.87167975 62.74299018 68.51923976 65.58006329 71.06368542 68.56704998 C75.55264393 73.71317345 80.38275689 78.50229964 85.22558594 83.31219482 C86.25139004 84.33484921 87.27696256 85.35773594 88.30232525 86.38083291 C90.51993799 88.59256571 92.73914817 90.80267854 94.95962334 93.01153755 C98.57316343 96.60619257 102.18315899 100.20439424 105.79273987 103.80302429 C110.35421875 108.35014166 114.91664545 112.89630452 119.48019487 117.44134387 C128.43856054 126.36339261 137.39068819 135.29167689 146.34057617 144.222229 C147.75075386 145.62929641 149.16093524 147.03636012 150.57112026 148.44342017 C152.70768374 150.57525829 154.84424364 152.7071 156.98078889 154.8389564 C165.02407793 162.86454312 173.06806096 170.8894339 181.11279297 178.91357422 C182.21527144 180.01323711 182.21527144 180.01323711 183.34002221 181.13511541 C195.27506254 193.03920455 207.21743489 204.93591503 219.16203713 216.83040866 C231.42638483 229.04374099 243.6812277 241.26655335 255.92764091 253.49786878 C263.48270593 261.04294966 271.04540271 268.58021533 278.6179648 276.10773596 C283.79843663 281.25873426 288.96982522 286.41873409 294.13403219 291.5860385 C297.11693681 294.57016613 300.10385036 297.54998378 303.10168648 300.51911736 C305.84210123 303.23345935 308.57090306 305.95892293 311.29066324 308.69395605 C312.27999429 309.68471456 313.2736312 310.67119447 314.27179289 311.65305576 C315.62099098 312.98141959 316.95358814 314.32658358 318.28511047 315.67266464 C319.03202306 316.41713655 319.77893564 317.16160846 320.54848194 317.92864013 C322 320 322 320 322.04611599 321.93362617 C320.53527089 324.91797092 318.33504152 327.06976685 315.97703362 329.38931656 C315.18069205 330.19040103 315.18069205 330.19040103 314.36826277 331.00766903 C312.57531796 332.80758953 310.77181202 334.596545 308.9682312 336.38580322 C307.67240223 337.68222397 306.3772337 338.97930516 305.08267224 340.27699161 C301.51366896 343.85077782 297.93535207 347.41511146 294.35550594 350.97803187 C290.49989628 354.81866853 286.65293254 358.66794758 282.8049469 362.51622009 C276.1319616 369.18736503 269.45355007 375.8530379 262.77151108 382.51511383 C253.10220932 392.15563242 243.44165625 401.80487914 233.78332676 411.4563888 C218.10339355 427.12486789 202.41715108 442.78701628 186.7265625 458.44482422 C182.92346392 462.2399922 179.12037235 466.03516721 175.31732178 469.8303833 C174.84563423 470.30109894 174.37394668 470.77181458 173.88796557 471.25679433 C162.94188014 482.18043877 151.9984123 493.10670405 141.05566406 504.03369141 C140.3528921 504.73544691 140.3528921 504.73544691 139.63592272 505.45137929 C128.93527944 516.1365732 118.23538779 526.82251939 107.53642464 537.5093956 C106.63732653 538.40747532 105.73822842 539.30555505 104.81188492 540.23084931 C101.21728443 543.82139764 97.62269184 547.41195388 94.02818944 551.0026004 C83.50523464 561.51423274 72.98009594 572.02366704 62.4509979 582.52914611 C55.84299568 589.12243068 49.23661955 595.71734136 42.63151221 602.313526 C38.82040399 606.11931899 35.00843622 609.92424124 31.19423485 613.72693443 C27.70062658 617.21000741 24.20934302 620.69539328 20.719862 624.18260095 C19.45888836 625.44191828 18.19705808 626.70037856 16.93427335 627.95787981 C8.42852266 636.41834176 8.42852266 636.41834176 0.42319638 645.349828 C-2.2941242 648.500515 -5.27157668 651.40194716 -8.22045898 654.33398438 C-8.90423111 655.01790253 -9.58800323 655.70182068 -10.29249573 656.40646362 C-12.52466303 658.63794131 -14.76033758 660.86586859 -16.99609375 663.09375 C-18.55572544 664.65151412 -20.11513464 666.20950102 -21.67433167 667.7677002 C-25.75733812 671.84690815 -29.8433399 675.92310269 -33.92999268 679.99865723 C-38.1081518 684.16654461 -42.28344362 688.33730224 -46.45898438 692.5078125 C-54.63653396 700.67467186 -62.81725377 708.83834763 -71 717 C-74.50692363 715.7638705 -76.86748862 714.50618613 -79.48583984 711.87060547 C-80.44240982 710.91853714 -80.44240982 710.91853714 -81.41830444 709.94723511 C-82.09237335 709.2608194 -82.76644226 708.57440369 -83.4609375 707.8671875 C-84.16973053 707.1565213 -84.87852356 706.4458551 -85.60879517 705.71365356 C-87.10665021 704.20908399 -88.60090696 702.70092478 -90.09179688 701.18945312 C-92.35305703 698.89724331 -94.6246147 696.61567914 -96.8984375 694.3359375 C-98.35739125 692.86780378 -99.8157438 691.39907232 -101.2734375 689.9296875 C-101.94345795 689.25541718 -102.61347839 688.58114685 -103.30380249 687.88644409 C-103.94782013 687.23281891 -104.59183777 686.57919373 -105.25537109 685.90576172 C-105.81098724 685.34331757 -106.36660339 684.78087341 -106.9390564 684.2013855 C-111.35447432 679.48508129 -115.56229705 674.63940204 -119.47002029 669.49243331 C-132.57744029 652.34338325 -147.44512211 633.95387028 -169.8001709 630.33704376 C-183.80737526 628.57380263 -197.98907082 628.87037089 -212.07339384 629.27085399 C-219.77294624 629.4809577 -227.46758994 629.4489516 -235.16925856 629.41302056 C-249.37240123 629.35310001 -263.56814751 629.47592842 -277.76928711 629.70786285 C-291.80377816 629.93633703 -305.83496771 630.0780354 -319.87133789 630.10848236 C-321.18804684 630.11139797 -321.18804684 630.11139797 -322.53135598 630.11437248 C-326.99077819 630.12377904 -331.45020169 630.13163079 -335.90962791 630.13885674 C-367.37722602 630.19235374 -398.84102351 630.42749593 -430.30664062 630.77490234 C-460.8259864 631.11132101 -491.34441263 631.37425032 -521.86523438 631.53173828 C-522.80792838 631.53663753 -523.75062239 631.54153677 -524.72188288 631.54658448 C-537.93991836 631.61512037 -551.15797522 631.67882764 -564.37604296 631.74079058 C-579.0325493 631.80954645 -593.68904893 631.87960253 -608.34553581 631.9523945 C-611.0365095 631.96572245 -613.72748396 631.97888537 -616.41845846 631.99204609 C-640.12393362 632.10886597 -663.82833774 632.28152315 -687.53301473 632.50799637 C-693.37741177 632.56362726 -699.22183058 632.61585696 -705.06628036 632.665627 C-705.87173833 632.67250127 -706.67719629 632.67937553 -707.50706206 632.6864581 C-710.70958841 632.71371978 -713.91211552 632.74087617 -717.11464652 632.76758621 C-726.27236193 632.84405354 -735.42975528 632.93230403 -744.58712943 633.04250001 C-750.83038439 633.11656321 -757.07365758 633.1702215 -763.3171792 633.21617219 C-765.84646574 633.23830448 -768.37570206 633.26749511 -770.9048171 633.30433634 C-774.33491284 633.35353567 -777.76432249 633.37788388 -781.19470215 633.3960762 C-782.18261584 633.41641381 -783.17052953 633.43675142 -784.18838 633.45770532 C-791.9957902 633.45623124 -797.65312195 631.5460693 -803.25 626 C-810.41609669 616.7388969 -811.12794058 605.23289274 -810 594 C-808.00452993 585.04990348 -802.57472176 578.16013481 -795 573.125 C-787.20592032 568.32089054 -779.0875407 568.72096482 -770.21736145 568.76190186 C-768.80506515 568.76119501 -767.39276906 568.75959364 -765.98047465 568.75717759 C-762.1086765 568.75302616 -758.2369873 568.7611823 -754.36520374 568.77128005 C-750.18578036 568.77993771 -746.00636446 568.77694521 -741.82693481 568.77513123 C-734.58610215 568.7733211 -727.3452985 568.77811044 -720.10447121 568.78673553 C-708.65391267 568.7997914 -697.2034106 568.7922097 -685.75285339 568.78131104 C-681.83288678 568.777833 -677.91292006 568.77448792 -673.9929533 568.77118301 C-673.0133471 568.77035168 -672.03374089 568.76952034 -671.02444965 568.76866381 C-659.8781988 568.7594834 -648.73194746 568.75453067 -637.58569336 568.75146484 C-636.56701873 568.75117909 -635.5483441 568.75089335 -634.49880054 568.75059894 C-617.99506229 568.7464955 -601.49136021 568.75771819 -584.98763005 568.77284035 C-568.03260271 568.78781888 -551.07768464 568.77981191 -534.12267321 568.75222325 C-523.67092269 568.7360711 -513.2195167 568.7387203 -502.76778694 568.76569638 C-495.60150757 568.78261265 -488.43545081 568.77770805 -481.26918576 568.75581208 C-477.13791921 568.74387528 -473.00725099 568.74159152 -468.87602425 568.76569176 C-465.0874857 568.78759733 -461.30002304 568.78147885 -457.5115312 568.75388661 C-455.5055692 568.74636282 -453.49956182 568.76817761 -451.4937194 568.79133677 C-441.98180639 568.68014109 -434.01646419 566.44239173 -426.76579124 560.02146888 C-418.70509793 551.64955019 -416.62514583 541.87308846 -416.71875 530.6171875 C-417.32166426 522.86304027 -420.38781684 516.35115138 -426 511 C-431.72029573 507.93562099 -436.4477653 507.56407564 -442.86804199 507.59022522 C-443.84505302 507.5823171 -444.82206405 507.57440899 -445.82868147 507.56626123 C-449.0935547 507.54331488 -452.35809875 507.54138606 -455.62304688 507.53930664 C-457.96737896 507.52697295 -460.31170423 507.51328224 -462.65602112 507.49833679 C-467.70000872 507.4688063 -472.7439238 507.44831769 -477.78797913 507.43467903 C-485.08838368 507.41437404 -492.38860015 507.37521763 -499.68888301 507.32980996 C-511.54433492 507.25624569 -523.39981451 507.19294344 -535.25537109 507.13891602 C-535.96433334 507.13568053 -536.67329559 507.13244505 -537.40374154 507.12911152 C-545.31450264 507.09319418 -553.22527082 507.05924622 -561.13604736 507.0269165 C-564.00557474 507.01514336 -566.87510192 507.00332354 -569.74462891 506.99145508 C-570.45272396 506.98853087 -571.16081902 506.98560666 -571.8903715 506.98259384 C-583.70274065 506.93337374 -595.51497224 506.86877436 -607.3271966 506.79240888 C-615.25578851 506.7418929 -623.18422016 506.71063987 -631.11295319 506.69287694 C-636.04419288 506.6778173 -640.97522792 506.64636313 -645.9063549 506.61035347 C-648.19322185 506.59699996 -650.48014016 506.59044913 -652.76704597 506.59119797 C-655.88910334 506.59127439 -659.01006854 506.56701231 -662.13195801 506.53675842 C-663.48911588 506.54563217 -663.48911588 506.54563217 -664.87369108 506.55468518 C-672.15306662 506.44161687 -676.44266304 504.55733696 -681.6875 499.3125 C-688.5305729 490.3916624 -689.93531715 479.95269933 -689 469 C-686.94270122 459.25076249 -681.62157523 452.60482868 -673.875 446.5625 C-667.63829986 443.17298905 -662.32391959 442.71081277 -655.37956238 442.74171448 C-654.41706756 442.73803877 -653.45457275 442.73436307 -652.46291143 442.73057598 C-649.24108935 442.72060418 -646.01944014 442.72474521 -642.79760742 442.72875977 C-640.48622962 442.72437223 -638.1748534 442.71906997 -635.86347961 442.71292114 C-630.88713298 442.70142188 -625.91082893 442.69596177 -620.93446922 442.69503975 C-613.06372072 442.69309911 -605.19306026 442.67504601 -597.32234192 442.65428162 C-586.28545813 442.62624738 -575.24857652 442.60352928 -564.21166992 442.58666992 C-563.51163864 442.58559724 -562.81160736 442.58452456 -562.090363 442.58341938 C-554.28320515 442.57160339 -546.47604652 442.56139718 -538.66888428 442.55297852 C-535.83907062 442.54990461 -533.00925697 442.54681581 -530.17944336 442.54370117 C-529.13204438 442.54255316 -529.13204438 442.54255316 -528.06348582 442.54138196 C-516.40714129 442.52828585 -504.75085531 442.50347064 -493.09455186 442.46995777 C-485.27269344 442.44818509 -477.45097826 442.44012326 -469.62909162 442.44235051 C-464.75900196 442.44068239 -459.88900562 442.4266252 -455.01894951 442.40913773 C-452.76353891 442.40354392 -450.50810892 442.40304773 -448.25269699 442.40807533 C-445.16871467 442.41422825 -442.08531984 442.40196369 -439.00138855 442.38526917 C-438.11343304 442.39148098 -437.22547754 442.3976928 -436.31061429 442.40409285 C-426.96740325 442.31222329 -418.68209519 439.72283968 -412 433 C-404.00891389 422.57068879 -401.93540674 413.03444309 -403 400 C-404.42705879 393.18082666 -407.46665013 388.86984236 -412.70703125 384.375 C-417.88470004 381.27016284 -423.2829133 380.74998948 -429.21087551 380.74946022 C-429.90541211 380.74666254 -430.59994871 380.74386487 -431.31553188 380.74098241 C-433.63618003 380.73403957 -435.95656221 380.74127278 -438.27720642 380.7484436 C-439.96046613 380.74630432 -441.64372491 380.74327836 -443.3269816 380.73944318 C-447.94759043 380.7314071 -452.56811825 380.73570808 -457.18872678 380.74196196 C-462.17381296 380.74649621 -467.15888371 380.73945534 -472.14396667 380.73365784 C-480.78115835 380.72502517 -489.41832954 380.72321661 -498.05552483 380.72560501 C-510.55217276 380.72870183 -523.04877537 380.71706684 -535.54541189 380.70105521 C-555.83194698 380.67509228 -576.11848209 380.6550736 -596.4050293 380.64160156 C-597.61914313 380.64079119 -598.83325696 380.63998082 -600.08416212 380.6391459 C-617.31823662 380.62792174 -634.55230788 380.62264263 -651.78638554 380.61975877 C-653.00019619 380.61955478 -654.21400683 380.61935079 -655.46459961 380.61914062 C-656.67693152 380.61894069 -657.88926342 380.61874075 -659.13833266 380.61853476 C-679.34775926 380.61480307 -699.5571367 380.59572702 -719.76653868 380.56404626 C-732.23275851 380.54512166 -744.69885234 380.53917635 -757.16508258 380.54986344 C-765.70537721 380.55617778 -774.2455814 380.54815545 -782.78585618 380.52880932 C-787.71444306 380.51811677 -792.6428104 380.51399385 -797.57139587 380.52728081 C-802.08363226 380.53932336 -806.59545681 380.53299362 -811.10765738 380.51208882 C-812.73947392 380.50778318 -814.37132525 380.51022911 -816.00311743 380.52012999 C-833.1155879 380.6164178 -833.1155879 380.6164178 -840.20703125 373.9140625 C-846.58630999 364.81854585 -849.48663248 353.5285758 -847.5546875 342.4453125 C-844.62077589 332.42954528 -839.32930289 324.14444417 -830 319 C-821.36967448 315.35111956 -812.56664946 315.58453286 -803.37548828 315.63491821 C-801.69106419 315.63305762 -800.00664113 315.62986654 -798.32222176 315.6254667 C-793.71220651 315.61715944 -789.10239134 315.62734455 -784.49239445 315.64055538 C-779.51345922 315.65148978 -774.53454387 315.64498801 -769.55560303 315.64042664 C-760.9331864 315.63468681 -752.31082605 315.63930021 -743.68841553 315.65044022 C-731.21104659 315.66610817 -718.73375327 315.6605239 -706.25638318 315.64882378 C-685.99709345 315.62993855 -665.73781401 315.62071161 -645.47851562 315.62109375 C-644.26662292 315.62111119 -643.05473021 315.62112863 -641.80611348 315.6211466 C-628.28309399 315.62159889 -614.7600782 315.62492857 -601.23706055 315.63201904 C-599.41302753 315.63296762 -599.41302753 315.63296762 -597.55214536 315.63393535 C-595.72991435 315.6348842 -595.72991435 315.6348842 -593.87087059 315.63585222 C-591.42107519 315.63712199 -588.97127978 315.6383874 -586.52148438 315.63964844 C-584.70586498 315.64059072 -584.70586498 315.64059072 -582.85356641 315.64155205 C-562.66889525 315.65150667 -542.48428547 315.6421807 -522.2996273 315.61746442 C-509.85390535 315.60303211 -497.4083994 315.60510253 -484.96268988 315.62842642 C-476.43595168 315.643174 -467.90934012 315.64002213 -459.38260698 315.6227975 C-454.46382523 315.61346042 -449.54539501 315.61231118 -444.62664032 315.63302803 C-440.12113722 315.65185635 -435.61625992 315.64758679 -431.11077857 315.62520044 C-429.4837214 315.62117487 -427.85661637 315.62555332 -426.22961259 315.6393344 C-415.01653694 315.72808946 -406.85088178 314.34942044 -398.1875 306.875 C-390.57261252 298.70204748 -388.35926802 288.02629375 -388.5859375 277.23828125 C-389.03393395 270.09128751 -392.14158713 263.70041015 -397.33203125 258.796875 C-402.57486862 255.26582787 -407.623188 254.70697793 -413.81163025 254.74171448 C-414.9634734 254.73620092 -414.9634734 254.73620092 -416.1385861 254.73057598 C-418.70175269 254.7206266 -421.26470104 254.72474065 -423.82788086 254.72875977 C-425.66960378 254.72437098 -427.51132471 254.71906827 -429.3530426 254.71292114 C-433.31445975 254.70143245 -437.27582348 254.69596256 -441.237257 254.69503975 C-447.50283031 254.6930974 -453.76829327 254.67503546 -460.03382874 254.65428162 C-475.59566215 254.60511729 -491.15752548 254.57420583 -506.71942139 254.55297852 C-518.81540264 254.53645436 -530.91128918 254.51364013 -543.00720698 254.46995777 C-549.23399211 254.44818606 -555.46059729 254.44012312 -561.68741786 254.44235051 C-565.56317678 254.44068267 -569.43881839 254.42662748 -573.31453514 254.40913773 C-575.10959266 254.40354306 -576.90467454 254.40304853 -578.69973373 254.40807533 C-581.15388553 254.41422654 -583.60729851 254.4019678 -586.06138611 254.38526917 C-587.12190962 254.39458689 -587.12190962 254.39458689 -588.20385784 254.40409285 C-594.88990193 254.32143007 -600.57346258 252.16617038 -605.5859375 247.609375 C-612.37194341 239.88607546 -613.76592917 229.92850429 -614 220 C-612.86455215 208.72293843 -607.45203479 202.00950694 -599.41796875 194.54296875 C-590.31280005 188.73272378 -580.12910293 189.58322698 -569.77148438 189.63110352 C-567.92271197 189.62863292 -566.07394097 189.62479189 -564.22517395 189.61968994 C-560.25723082 189.61137721 -556.28943134 189.61213798 -552.32148743 189.61987495 C-546.04250493 189.6314936 -539.76370584 189.6192659 -533.48474121 189.60325623 C-517.89203992 189.56712489 -502.29934338 189.56083185 -486.706604 189.56335449 C-474.58033577 189.56506678 -462.4542181 189.55791971 -450.32799196 189.52337593 C-444.09081449 189.50660907 -437.85400478 189.50835294 -431.61682892 189.52419865 C-427.73221825 189.53000645 -423.84778102 189.5192363 -419.96320152 189.50395203 C-418.16736114 189.5002345 -416.37149133 189.50330863 -414.57567787 189.51382256 C-401.7344266 189.73543023 -401.7344266 189.73543023 -390 185 C-389.20207031 184.505 -388.40414063 184.01 -387.58203125 183.5 C-381.1274949 178.02860494 -377.65238339 170.95715018 -375 163 C-374.29958588 152.88418298 -373.92755792 143.1258612 -380.73046875 134.91015625 C-388.68417867 127.14695435 -398.75163693 127.7100719 -409.25282288 127.76190186 C-410.56977203 127.76034285 -411.88672119 127.75878384 -413.2435779 127.75717759 C-416.87914966 127.75303859 -420.51460475 127.76116354 -424.15016091 127.77128005 C-428.07861815 127.7799569 -432.00706767 127.77694363 -435.93553162 127.77513123 C-442.73707849 127.77332332 -449.53859443 127.77810091 -456.34013557 127.78673553 C-467.09245441 127.79980187 -477.84471321 127.79220532 -488.59703064 127.78131104 C-492.27879801 127.77783331 -495.9605655 127.7744882 -499.64233303 127.77118301 C-501.02228818 127.76993601 -501.02228818 127.76993601 -502.4301212 127.76866381 C-512.89099419 127.75948865 -523.3518677 127.75453146 -533.81274414 127.75146484 C-535.24642908 127.75103622 -535.24642908 127.75103622 -536.70907735 127.75059894 C-552.20984677 127.74649142 -567.71057776 127.75773005 -583.21133859 127.77284035 C-599.13584135 127.78780716 -615.0602277 127.77983421 -630.98471349 127.75222325 C-640.80246578 127.73605633 -650.61985137 127.73874695 -660.43758165 127.76569638 C-667.16323225 127.78258375 -673.8886453 127.77774267 -680.61428053 127.75581208 C-684.49394622 127.7438499 -688.37297403 127.7416611 -692.25259781 127.76569176 C-696.46027943 127.79152487 -700.66647429 127.77098018 -704.87416077 127.74603271 C-706.09760431 127.76098305 -707.32104785 127.77593339 -708.58156544 127.79133677 C-716.13688523 127.69658897 -720.65450157 126.46295647 -726 121 C-733.09268454 113.28466897 -734.64272245 103.42830977 -734.33984375 93.203125 C-733.30277161 83.42842203 -729.1223714 76.62546177 -722 70 C-714.69083721 64.29885302 -708.27963483 63.72132251 -699.33325291 63.91426563 C-697.71261352 63.93658341 -697.71261352 63.93658341 -696.05923393 63.95935205 C-692.41920318 64.0117669 -688.77958252 64.07886184 -685.13978577 64.14546204 C-682.51077072 64.18555633 -679.88175845 64.22473135 -677.25271219 64.26260823 C-671.5252863 64.34654613 -665.79800007 64.43720549 -660.07074547 64.53208351 C-644.98911019 64.78112576 -629.90686458 64.98981988 -614.82466361 65.20124703 C-612.27101374 65.23717086 -609.71736952 65.27347656 -607.16372623 65.30986543 C-580.46255354 65.68942924 -553.76141552 65.97621419 -527.05845642 66.19487 C-525.70402265 66.20602515 -525.70402265 66.20602515 -524.32222657 66.21740567 C-505.65138435 66.3710024 -486.98047148 66.51416543 -468.3094707 66.64706168 C-457.73290126 66.72246602 -447.15635934 66.80121907 -436.57983398 66.88256836 C-435.6226059 66.88987711 -434.66537782 66.89718586 -433.67914282 66.90471609 C-402.7753525 67.14210353 -371.87833043 67.57925788 -340.97849403 68.12037741 C-309.1431552 68.6767603 -277.31206847 69.02032304 -245.47183537 69.10772426 C-240.94968032 69.12024702 -236.42753616 69.13516912 -231.9053936 69.15157127 C-231.01562189 69.15472877 -230.12585018 69.15788627 -229.20911569 69.16113946 C-215.90058218 69.21409391 -202.60354366 69.45045659 -189.29936409 69.78505898 C-169.34600839 70.27731014 -149.40791266 70.4997159 -129.44946289 70.2121582 C-128.6741627 70.20158248 -127.89886251 70.19100676 -127.10006837 70.18011056 C-90.31935965 69.63822124 -58.35155113 67.16182395 -30.68778896 39.97082043 C-21.59866978 30.58961486 -13.35664398 20.32378382 -6.29563653 9.33021247 C-5.88594645 8.69340669 -5.47625637 8.05660091 -5.05415144 7.40049798 C-3.9735808 5.69079382 -2.92565443 3.9605789 -1.88037962 2.22907037 C-1.25985434 1.49347714 -0.63932907 0.75788392 0 0 Z " fill="#6662F7" transform="translate(857,11)"/>
<path d="M0 0 C5.64218744 4.69660188 10.85430711 9.71203605 16.03710938 14.90771484 C16.91446243 15.78331558 17.79181549 16.65891632 18.695755 17.56105042 C21.08398304 19.94565018 23.46996293 22.33245431 25.85478401 24.72045851 C28.36306929 27.23129257 30.87381297 29.73966648 33.38415527 32.2484436 C37.59888573 36.46135935 41.81151412 40.67636837 46.02294922 44.89257812 C50.87495054 49.75001718 55.73053874 54.60384833 60.58801222 59.45581472 C64.77521779 63.63846501 68.96044984 67.82308255 73.14407396 72.00931513 C75.63535914 74.50215029 78.12729338 76.99432654 80.62101746 79.48472214 C83.40452427 82.2647725 86.18388794 85.04894297 88.96289062 87.83349609 C89.77764359 88.64622482 90.59239655 89.45895355 91.43183899 90.29631042 C92.57963081 91.44833199 92.57963081 91.44833199 93.75061035 92.62362671 C94.40613136 93.27952475 95.06165237 93.93542278 95.73703766 94.61119652 C97.62172894 96.60069365 99.41316132 98.6253312 101.20046329 100.70088387 C105.28260225 105.3911308 109.63893551 109.77482967 114.04197693 114.16223145 C115.37401935 115.49555551 115.37401935 115.49555551 116.73297173 116.85581541 C119.17766093 119.30272413 121.62542915 121.74653164 124.07374513 124.18981075 C126.72100285 126.83272735 129.36534663 129.47855676 132.01005554 132.12402344 C136.58588067 136.70037148 141.16352495 141.27489321 145.74242973 145.84815979 C152.36265659 152.4602402 158.98010199 159.07509861 165.59688402 165.69062608 C176.33371016 176.42526664 187.07276494 187.15767473 197.81323242 197.88867188 C208.24311874 208.3093713 218.67194839 218.73112636 229.09936523 229.15429688 C229.74271721 229.79738613 230.3860692 230.44047539 231.04891669 231.1030522 C234.27659886 234.32942928 237.50426035 237.55582707 240.73191154 240.78223515 C267.48473372 267.52470009 294.24117756 294.26353905 321 321 C319.58293001 324.21772752 317.88243282 326.36582773 315.40010548 328.84319687 C314.64802683 329.59864092 313.89594818 330.35408496 313.12107927 331.13242126 C312.29123496 331.95575776 311.46139064 332.77909427 310.60639954 333.62738037 C309.72758234 334.50720085 308.84876514 335.38702134 307.94331712 336.29350305 C305.50219797 338.7354109 303.05666706 341.17274395 300.60919631 343.60827589 C297.97081554 346.23597166 295.33822004 348.86945198 292.7049408 351.5022583 C288.13988164 356.06495394 283.5712275 360.62402411 279.00017738 365.18071747 C272.3830638 371.77714753 265.77195894 378.37957326 259.16240074 384.98357275 C248.42813262 395.70858088 237.68977253 406.42948181 226.94848633 417.14746094 C226.30548071 417.78907324 225.6624751 418.43068554 224.99998447 419.09174064 C224.35619735 419.73413223 223.71241023 420.37652381 223.04911441 421.03838181 C213.93283958 430.13491148 204.81751757 439.23239448 195.70336914 448.33105469 C194.74230748 449.29048008 194.74230748 449.29048008 193.76183043 450.26928779 C183.06897807 460.94410036 172.37816675 471.62095552 161.68839711 482.29885507 C155.09724489 488.8824264 148.50402438 495.46391412 141.90809306 502.04269746 C137.38474652 506.55445073 132.86311438 511.06791716 128.34280834 515.58271667 C125.73671326 518.18548955 123.12978535 520.78741409 120.52061081 523.38710022 C117.68718655 526.2102395 114.85769319 529.03728698 112.02851868 531.86468506 C110.80048262 533.08630549 110.80048262 533.08630549 109.54763776 534.33260512 C105.42682669 538.45749679 101.49243002 542.66815307 97.68778569 547.08530068 C94.84000886 550.31594565 91.79350269 553.34070015 88.74232483 556.37792969 C88.04622351 557.07488544 87.35012218 557.77184118 86.63292688 558.4899168 C84.3215318 560.80294676 82.00660351 563.11240647 79.69165039 565.421875 C78.02539951 567.08784355 76.3593693 568.75403284 74.69354248 570.42042542 C70.18600627 574.92824782 65.67539966 579.43298645 61.16422582 583.93716812 C56.92320079 588.17256515 52.68449159 592.41027803 48.44576602 596.64797604 C40.05491256 605.03664558 31.66183243 613.42308357 23.26733398 621.80810547 C15.11706792 629.94918031 6.96786191 638.09131386 -1.17993164 646.23486328 C-1.68289483 646.73756375 -2.18585802 647.24026421 -2.70406251 647.75819802 C-5.22749335 650.28032374 -7.75090348 652.80247018 -10.27430332 655.32462692 C-31.17965921 676.21963076 -52.08867422 697.11097068 -73 718 C-77.88545589 713.90005041 -82.49433139 709.64740181 -86.9919281 705.12832642 C-87.65944456 704.46166438 -88.32696101 703.79500235 -89.01470524 703.10813844 C-91.23410601 700.89037497 -93.4499314 698.66907454 -95.66577148 696.44775391 C-97.26262792 694.85061519 -98.85970499 693.25369705 -100.45698547 691.65698242 C-104.78098888 687.33326541 -109.10190647 683.00647652 -113.42227054 678.6791234 C-117.94216101 674.15297319 -122.46489168 669.62966284 -126.98731995 665.10604858 C-134.57380758 657.516808 -142.15854751 649.9258258 -149.74194336 642.33349609 C-157.55033686 634.51591329 -165.35978762 626.69938913 -173.1706543 618.88427734 C-173.89373563 618.16080193 -173.89373563 618.16080193 -174.63142466 617.42271085 C-177.04993252 615.00289788 -179.46846109 612.58310562 -181.88699996 610.16332364 C-201.92787849 590.11209077 -221.9650929 570.05719932 -242 550 C-240.49195548 546.46835215 -238.4464524 544.19772168 -235.7402401 541.49414444 C-234.84102534 540.59094758 -233.94181058 539.68775073 -233.01534688 538.75718427 C-232.01124594 537.75878936 -231.00705269 536.7604873 -230.0027771 535.76226807 C-228.94054995 534.69916897 -227.87876232 533.63563057 -226.81737769 532.57169032 C-223.8961774 529.64601034 -220.96876456 526.72661595 -218.0403204 523.80818915 C-214.88470284 520.6611948 -211.73485304 517.50843694 -208.58430481 514.35636902 C-203.12386486 508.89487951 -197.65977002 503.43706876 -192.19318771 497.9817276 C-184.28939777 490.09417997 -176.39112507 482.20112666 -168.49419542 474.30671129 C-155.68233 461.49922496 -142.86600302 448.69621291 -130.046875 435.89599609 C-117.59303724 423.46051158 -105.14129822 411.02293179 -92.69238281 398.58251953 C-91.9252504 397.81591256 -91.15811798 397.04930559 -90.36773913 396.25946811 C-86.51933971 392.41367873 -82.67098158 388.56784803 -78.822644 384.72199678 C-46.8881632 352.80825517 -14.94644325 320.90176659 17 289 C13.11371316 284.34700863 9.07767376 279.94126808 4.76698303 275.68037415 C4.16903583 275.08510034 3.57108862 274.48982654 2.9550218 273.87651414 C0.96987241 271.90134938 -1.01886106 269.92983384 -3.00756836 267.95825195 C-4.43888352 266.53541209 -5.86993749 265.11230943 -7.30075073 263.68896484 C-10.37206071 260.63432212 -13.44473832 257.58106407 -16.51835442 254.52874184 C-21.37473129 249.70504382 -26.22509978 244.87533524 -31.07411194 240.04423523 C-31.8932729 239.22816073 -32.71243386 238.41208624 -33.55641788 237.57128221 C-35.23066234 235.90334481 -36.90489816 234.23539875 -38.57912552 232.56744421 C-49.86311502 221.3264592 -61.15160096 210.0900487 -72.4543457 198.86791992 C-80.08826445 191.28835669 -87.71336029 183.70004018 -95.32833201 176.10144013 C-99.35749506 172.08167303 -103.39116857 168.06666781 -107.43571281 164.06237221 C-111.23271372 160.30305482 -115.01808429 156.53242021 -118.79465866 152.75258636 C-120.18556216 151.36466682 -121.58079092 149.981067 -122.98052025 148.60204887 C-124.88397376 146.72552995 -126.77158182 144.83440986 -128.65586853 142.93867493 C-129.50037997 142.11703298 -129.50037997 142.11703298 -130.36195225 141.2787922 C-133.95176995 137.62184676 -133.95176995 137.62184676 -134.15709877 134.97447109 C-132.45351319 132.06747597 -130.2151647 129.81390624 -127.83055115 127.4697876 C-127.28658426 126.92325743 -126.74261737 126.37672727 -126.18216664 125.81363559 C-124.3543331 123.9808536 -122.51596997 122.15901198 -120.67749023 120.33691406 C-119.36637034 119.02664021 -118.05591035 117.71570576 -116.74606323 116.40415955 C-113.18474152 112.84197556 -109.61423237 109.28912993 -106.04203677 105.73785496 C-102.31174466 102.02629088 -98.58992184 98.30625421 -94.86720276 94.58709717 C-87.81482588 87.54405213 -80.75483511 80.50869063 -73.69209582 73.47603869 C-65.6524665 65.46991789 -57.6213335 57.45529748 -49.5909127 49.43994188 C-33.07006353 32.95046755 -16.53854136 16.47172808 0 0 Z " fill="#6662F7" transform="translate(1205,44)"/>
<path d="M0 0 C3.7585638 1.56906848 6.17847043 3.90681746 9.05981445 6.75341797 C9.54968338 7.23496338 10.03955231 7.71650879 10.54426575 8.21264648 C12.15605965 9.80041251 13.76015404 11.39567424 15.36328125 12.9921875 C16.48089639 14.10083539 17.59858853 15.20940566 18.71635437 16.31790161 C21.05429586 18.63937342 23.38782543 20.96518542 25.71899414 23.29345703 C28.71131899 26.28038039 31.71948906 29.25078862 34.73180866 32.21752739 C37.04357275 34.49960955 39.34406176 36.79280313 41.64153099 39.08926773 C42.74628925 40.18981104 43.85518249 41.2862193 44.96819496 42.37841415 C46.51988101 43.90335205 48.0550962 45.44317558 49.5871582 46.98779297 C50.46555862 47.86112274 51.34395905 48.73445251 52.24897766 49.63424683 C54 52 54 52 53.918396 54.14839172 C52.43159176 57.14598648 50.08094106 59.3037354 47.71484375 61.61328125 C47.18033096 62.14592087 46.64581818 62.67856049 46.09510803 63.2273407 C44.96118377 64.35454639 43.8236693 65.47815028 42.68286133 66.59838867 C40.96125613 68.28916922 39.25023613 69.99006938 37.54101562 71.69335938 C32.36709588 76.82957357 27.17966121 81.89243427 21.58813477 86.57910156 C19.08078789 88.82241575 17.06705137 91.35159043 15 94 C11.2414362 92.43093152 8.82152957 90.09318254 5.94018555 87.24658203 C5.45031662 86.76503662 4.96044769 86.28349121 4.45573425 85.78735352 C2.84394035 84.19958749 1.23984596 82.60432576 -0.36328125 81.0078125 C-1.48089639 79.89916461 -2.59858853 78.79059434 -3.71635437 77.68209839 C-6.05429586 75.36062658 -8.38782543 73.03481458 -10.71899414 70.70654297 C-13.71131899 67.71961961 -16.71948906 64.74921138 -19.73180866 61.78247261 C-22.04357275 59.50039045 -24.34406176 57.20719687 -26.64153099 54.91073227 C-27.74628925 53.81018896 -28.85518249 52.7137807 -29.96819496 51.62158585 C-31.51988101 50.09664795 -33.0550962 48.55682442 -34.5871582 47.01220703 C-35.46555862 46.13887726 -36.34395905 45.26554749 -37.24897766 44.36575317 C-39 42 -39 42 -39.00091553 39.93313599 C-37.7619015 37.54014423 -36.31583896 35.9562762 -34.39819336 34.05761719 C-33.63748032 33.29713074 -32.87676727 32.53664429 -32.09300232 31.75311279 C-31.26695999 30.94255432 -30.44091766 30.13199585 -29.58984375 29.296875 C-28.74780899 28.45908508 -27.90577423 27.62129517 -27.03822327 26.75811768 C-24.34493317 24.08163168 -21.6414034 21.41575944 -18.9375 18.75 C-17.11064452 16.93818902 -15.28446395 15.12569726 -13.45898438 13.3125 C-8.98046023 8.8670682 -4.49348255 4.43030839 0 0 Z " fill="#FCFCFE" transform="translate(1423,317)"/>
<path d="M0 0 C3.7585638 1.56906848 6.17847043 3.90681746 9.05981445 6.75341797 C9.54968338 7.23496338 10.03955231 7.71650879 10.54426575 8.21264648 C12.15605965 9.80041251 13.76015404 11.39567424 15.36328125 12.9921875 C16.48089639 14.10083539 17.59858853 15.20940566 18.71635437 16.31790161 C21.05429586 18.63937342 23.38782543 20.96518542 25.71899414 23.29345703 C28.71131899 26.28038039 31.71948906 29.25078862 34.73180866 32.21752739 C37.04357275 34.49960955 39.34406176 36.79280313 41.64153099 39.08926773 C42.74628925 40.18981104 43.85518249 41.2862193 44.96819496 42.37841415 C46.51988101 43.90335205 48.0550962 45.44317558 49.5871582 46.98779297 C50.46555862 47.86112274 51.34395905 48.73445251 52.24897766 49.63424683 C54 52 54 52 53.90324402 54.18338013 C52.57375795 56.85726533 50.65279025 58.33693145 48.375 60.25 C45.27204171 62.86603253 42.4811738 65.53151265 39.84765625 68.609375 C35.20221707 74.01723359 30.12314761 78.98491283 25.0625 84 C24.0824469 84.97502386 23.1026276 85.9502828 22.12304688 86.92578125 C19.75097687 89.28616618 17.3765914 91.64416905 15 94 C11.37594931 92.46718565 9.05150453 90.3048941 6.27905273 87.5378418 C5.34806259 86.61315598 4.41707245 85.68847015 3.45787048 84.73576355 C2.4495233 83.72383592 1.44143739 82.71164789 0.43359375 81.69921875 C-0.60696189 80.66001115 -1.6478142 79.62110054 -2.68894958 78.58247375 C-4.86841129 76.40595804 -7.0442216 74.22587306 -9.2175293 72.04321289 C-11.99708456 69.25227767 -14.78550281 66.47039848 -17.5767374 63.69114971 C-19.72768663 61.54744534 -21.87382751 59.39897797 -24.01856804 57.24906349 C-25.04450814 56.22179342 -26.07192443 55.19599536 -27.1008625 54.17172813 C-28.54157724 52.73612003 -29.97516115 51.29336657 -31.40844727 49.8503418 C-32.22467056 49.03252731 -33.04089386 48.21471283 -33.8818512 47.37211609 C-35.96233098 45.04218556 -37.49345803 42.72842204 -39 40 C-37.91900024 38.92685547 -37.91900024 38.92685547 -36.81616211 37.83203125 C-34.10927088 35.14342116 -31.40583901 32.45135438 -28.70336914 29.75830078 C-27.53957726 28.59949681 -26.37488451 27.44159678 -25.20922852 26.28466797 C-19.41152022 20.5292424 -13.655402 14.80112176 -8.35327148 8.578125 C-6.67827628 6.62482011 -4.90015929 4.80015604 -3.0625 3 C-2.47597656 2.4225 -1.88945313 1.845 -1.28515625 1.25 C-0.86105469 0.8375 -0.43695312 0.425 0 0 Z " fill="#FDFDFE" transform="translate(627,286)"/>
<path d="M0 0 C3.43095546 1.47994888 5.65962605 3.41159813 8.2902832 6.04736328 C9.12827957 6.88228302 9.96627594 7.71720276 10.82966614 8.5774231 C12.17661812 9.93515335 12.17661812 9.93515335 13.55078125 11.3203125 C14.48294968 12.25293915 15.4151181 13.1855658 16.37553406 14.14645386 C18.34974456 16.12222735 20.32055661 18.10130844 22.28881836 20.08300781 C24.79173105 22.60280475 27.30106912 25.11607562 29.81281757 27.62706184 C31.75984188 29.57436052 33.70423009 31.524274 35.64778709 33.47503281 C37.01538206 34.84729257 38.38441928 36.21811452 39.75349426 37.58889771 C44.69784385 42.57046968 49.46203297 47.6445085 54 53 C47.67441637 60.76885405 40.42289993 67.63971633 33.30688477 74.67260742 C23.83669936 84.03862243 23.83669936 84.03862243 15 94 C11.2414362 92.43093152 8.82152957 90.09318254 5.94018555 87.24658203 C5.45031662 86.76503662 4.96044769 86.28349121 4.45573425 85.78735352 C2.84394035 84.19958749 1.23984596 82.60432576 -0.36328125 81.0078125 C-1.48089639 79.89916461 -2.59858853 78.79059434 -3.71635437 77.68209839 C-6.05429586 75.36062658 -8.38782543 73.03481458 -10.71899414 70.70654297 C-13.71131899 67.71961961 -16.71948906 64.74921138 -19.73180866 61.78247261 C-22.04357275 59.50039045 -24.34406176 57.20719687 -26.64153099 54.91073227 C-27.74628925 53.81018896 -28.85518249 52.7137807 -29.96819496 51.62158585 C-31.51988101 50.09664795 -33.0550962 48.55682442 -34.5871582 47.01220703 C-35.46555862 46.13887726 -36.34395905 45.26554749 -37.24897766 44.36575317 C-39 42 -39 42 -39.00091553 39.93313599 C-37.7619015 37.54014423 -36.31583896 35.9562762 -34.39819336 34.05761719 C-33.63748032 33.29713074 -32.87676727 32.53664429 -32.09300232 31.75311279 C-31.26695999 30.94255432 -30.44091766 30.13199585 -29.58984375 29.296875 C-28.74780899 28.45908508 -27.90577423 27.62129517 -27.03822327 26.75811768 C-24.34493317 24.08163168 -21.6414034 21.41575944 -18.9375 18.75 C-17.11064452 16.93818902 -15.28446395 15.12569726 -13.45898438 13.3125 C-8.98046023 8.8670682 -4.49348255 4.43030839 0 0 Z " fill="#FDFDFE" transform="translate(1122,619)"/>
<path d="M0 0 C3.78301227 1.56943684 6.17256547 3.93101277 9.04394531 6.81689453 C9.53220795 7.30486511 10.02047058 7.79283569 10.52352905 8.29559326 C12.12984962 9.90330275 13.72897713 11.51797101 15.328125 13.1328125 C16.44298317 14.25140235 17.55828487 15.36955029 18.67401123 16.48727417 C21.60470609 19.42559325 24.52934422 22.36986955 27.45275879 25.31542969 C30.43882725 28.32198262 33.43058859 31.32285882 36.421875 34.32421875 C42.28683456 40.21060686 48.14540732 46.103301 54 52 C52.56741228 55.27196452 50.81174684 57.43203956 48.28466797 59.94238281 C47.52403046 60.70286926 46.76339294 61.46335571 45.97970581 62.24688721 C44.74838425 63.46272491 44.74838425 63.46272491 43.4921875 64.703125 C42.65156769 65.54091492 41.81094788 66.37870483 40.94485474 67.24188232 C38.25955999 69.91598431 35.56739345 72.58304724 32.875 75.25 C31.05292845 77.06204062 29.23130823 78.87453518 27.41015625 80.6875 C22.94532748 85.13028036 18.47483717 89.56730165 14 94 C7.89581712 88.9421441 2.2980462 83.45927946 -3.30859375 77.859375 C-4.28500861 76.88617922 -5.26149608 75.9130563 -6.23805237 74.94000244 C-8.26943817 72.91456388 -10.29878813 70.88711067 -12.3269043 68.85839844 C-14.93012466 66.2550756 -17.54020891 63.65875041 -20.15202236 61.06405258 C-22.16364335 59.06351383 -24.17073974 57.05848353 -26.17656136 55.05213165 C-27.13785749 54.09201722 -28.10077939 53.13352774 -29.06533623 52.17668915 C-30.40561101 50.84615635 -31.73900005 49.50869807 -33.07202148 48.17089844 C-33.83256332 47.41178162 -34.59310516 46.65266479 -35.37669373 45.87054443 C-37 44 -37 44 -37 42 C-37.66 42 -38.32 42 -39 42 C-38.42415412 38.32647726 -37.01262011 36.64615853 -34.39819336 34.05761719 C-33.63748032 33.29713074 -32.87676727 32.53664429 -32.09300232 31.75311279 C-31.26695999 30.94255432 -30.44091766 30.13199585 -29.58984375 29.296875 C-28.74780899 28.45908508 -27.90577423 27.62129517 -27.03822327 26.75811768 C-24.34493317 24.08163168 -21.6414034 21.41575944 -18.9375 18.75 C-17.11064452 16.93818902 -15.28446395 15.12569726 -13.45898438 13.3125 C-8.98046023 8.8670682 -4.49348255 4.43030839 0 0 Z " fill="#FDFDFE" transform="translate(1001,359)"/>
<path d="M0 0 C2.63875022 1.23141545 4.263932 2.8148922 6.31974792 4.88092041 C7.15774429 5.71591568 7.99574066 6.55091095 8.85913086 7.41120911 C10.20608284 8.77668129 10.20608284 8.77668129 11.58024597 10.16973877 C12.5124144 11.10378036 13.44458282 12.03782196 14.40499878 13.00016785 C16.38070255 14.9804744 18.35139936 16.96558434 20.31828308 18.95465088 C22.8195342 21.48399005 25.32919621 24.00475703 27.8422823 26.52233219 C30.25808521 28.94333948 32.6692134 31.3689825 35.08024597 33.79473877 C36.41808891 35.13895653 36.41808891 35.13895653 37.78295898 36.5103302 C42.72132366 41.50468095 47.48604292 46.58990653 52.02946472 51.94708252 C50.69552522 54.91381911 49.23967137 56.9792842 46.9283905 59.25933838 C46.30078827 59.88356186 45.67318604 60.50778534 45.02656555 61.15092468 C44.3494754 61.81455521 43.67238525 62.47818573 42.97477722 63.16192627 C42.27682037 63.85468155 41.57886353 64.54743683 40.85975647 65.26118469 C38.62935638 67.4737878 36.39239512 69.67959823 34.15446472 71.88458252 C31.92453053 74.08682912 29.69609319 76.29053776 27.47059631 78.49726868 C26.086598 79.86908892 24.69993486 81.23822741 23.31025696 82.60429382 C19.97892741 85.90130186 16.86305947 89.19810839 14.02946472 92.94708252 C9.79888186 92.44238532 7.8177327 90.09763962 4.89372253 87.1519165 C4.14669823 86.40554932 4.14669823 86.40554932 3.38458252 85.644104 C1.74337211 84.00080677 0.11303809 82.34714617 -1.51741028 80.69317627 C-2.65447022 79.55052001 -3.79219516 78.40852514 -4.93055725 77.26716614 C-7.92267004 74.26360746 -10.90566387 71.25114837 -13.88685608 68.23675537 C-16.93143462 65.1614706 -19.98453978 62.09467707 -23.03694153 59.02716064 C-29.02319045 53.00875207 -34.99983373 46.98091535 -40.97053528 40.94708252 C-39.55597228 37.74797809 -37.85763507 35.5684186 -35.41047668 33.08062744 C-34.31891769 31.96508736 -34.31891769 31.96508736 -33.20530701 30.82701111 C-32.41884796 30.03518936 -31.63238892 29.24336761 -30.82209778 28.42755127 C-29.60869217 27.20060295 -29.60869217 27.20060295 -28.37077332 25.9488678 C-26.66035176 24.2239494 -24.94711348 22.50182014 -23.23127747 20.7822876 C-20.60025578 18.13932444 -17.98845773 15.47829026 -15.37678528 12.81622314 C-13.71387427 11.14385342 -12.04984913 9.47259062 -10.38459778 7.80255127 C-9.60218719 7.00060837 -8.81977661 6.19866547 -8.01365662 5.37242126 C-6.91264114 4.28052238 -6.91264114 4.28052238 -5.78938293 3.16656494 C-5.14699677 2.51910812 -4.5046106 1.87165131 -3.84275818 1.20457458 C-1.97053528 -0.05291748 -1.97053528 -0.05291748 0 0 Z " fill="#FDFDFE" transform="translate(703.9705352783203,211.05291748046875)"/>
<path d="M0 0 C1.35646057 1.37646484 1.35646057 1.37646484 2.96704102 3.3359375 C7.54261214 8.71235336 12.52455682 13.65000381 17.52734375 18.625 C18.52647028 19.62225677 19.5253728 20.61973802 20.52406311 21.61743164 C23.1274695 24.21705679 25.7338667 26.81366231 28.34094238 29.40960693 C31.01104274 32.06939763 33.67824277 34.7320934 36.34570312 37.39453125 C41.56100038 42.59916888 46.77946716 47.8006134 52 53 C51.60208755 53.46361938 51.20417511 53.92723877 50.79420471 54.40490723 C47.56137918 58.17061253 47.56137918 58.17061253 44.35522461 61.95898438 C38.49234008 68.85237767 31.97908322 75.12951668 25.5625 81.5 C24.3415631 82.71591114 23.12085808 83.93205516 21.90039062 85.1484375 C18.93625987 88.10164966 15.96901042 91.05169398 13 94 C9.2414362 92.43093152 6.82152957 90.09318254 3.94018555 87.24658203 C3.45031662 86.76503662 2.96044769 86.28349121 2.45573425 85.78735352 C0.84394035 84.19958749 -0.76015404 82.60432576 -2.36328125 81.0078125 C-3.48089639 79.89916461 -4.59858853 78.79059434 -5.71635437 77.68209839 C-8.05429586 75.36062658 -10.38782543 73.03481458 -12.71899414 70.70654297 C-15.71131899 67.71961961 -18.71948906 64.74921138 -21.73180866 61.78247261 C-24.04357275 59.50039045 -26.34406176 57.20719687 -28.64153099 54.91073227 C-29.74628925 53.81018896 -30.85518249 52.7137807 -31.96819496 51.62158585 C-33.51988101 50.09664795 -35.0550962 48.55682442 -36.5871582 47.01220703 C-37.46555862 46.13887726 -38.34395905 45.26554749 -39.24897766 44.36575317 C-41 42 -41 42 -40.99893188 39.93313599 C-39.76683478 37.54877796 -38.33133735 35.9572281 -36.42993164 34.05761719 C-35.67567398 33.29713074 -34.92141632 32.53664429 -34.14430237 31.75311279 C-33.32453415 30.94255432 -32.50476593 30.13199585 -31.66015625 29.296875 C-30.82286484 28.45908508 -29.98557343 27.62129517 -29.12290955 26.75811768 C-27.3518892 24.98943784 -25.57717478 23.22445041 -23.79907227 21.46289062 C-21.06806427 18.75551612 -18.35065653 16.03503002 -15.63476562 13.3125 C-13.9148542 11.5981637 -12.19417695 9.88459528 -10.47265625 8.171875 C-9.65491226 7.3532196 -8.83716827 6.53456421 -7.99464417 5.69110107 C-7.23723434 4.94322327 -6.47982452 4.19534546 -5.69946289 3.42480469 C-5.0318544 2.76180359 -4.36424591 2.09880249 -3.67640686 1.41571045 C-2 0 -2 0 0 0 Z " fill="#FDFDFE" transform="translate(1202,93)"/>
<path d="M0 0 C2.79192366 1.27467043 4.84081631 2.59153969 7.00512695 4.76220703 C7.56283279 5.31683624 8.12053864 5.87146545 8.69514465 6.44290161 C9.28687973 7.0418222 9.87861481 7.6407428 10.48828125 8.2578125 C11.42041695 9.19063553 11.42041695 9.19063553 12.37138367 10.14230347 C13.68575416 11.45969214 14.99769625 12.77950751 16.30737305 14.1015625 C18.28976904 16.10206146 20.27989518 18.09459513 22.27148438 20.0859375 C27.84544791 25.6759188 33.37491367 31.24987233 38.48950195 37.26904297 C41.31078925 40.5021005 44.3838642 43.48837189 47.4375 46.5 C48.07365234 47.13164062 48.70980469 47.76328125 49.36523438 48.4140625 C50.90782806 49.94505774 52.45357314 51.47287667 54 53 C52.58098338 56.22745524 50.87144235 58.37258107 48.37646484 60.85058594 C47.63584808 61.59105164 46.89523132 62.33151733 46.13217163 63.09442139 C44.93366074 64.27744843 44.93366074 64.27744843 43.7109375 65.484375 C42.89251373 66.29996887 42.07408997 67.11556274 41.23086548 67.95587158 C38.61690027 70.55864562 35.99606495 73.15437762 33.375 75.75 C31.60110546 77.5138634 29.82766234 79.2781809 28.0546875 81.04296875 C23.70834858 85.36726136 19.35634919 89.6857933 15 94 C11.21698773 92.43056316 8.82743453 90.06898723 5.95605469 87.18310547 C5.46779205 86.69513489 4.97952942 86.20716431 4.47647095 85.70440674 C2.87015038 84.09669725 1.27102287 82.48202899 -0.328125 80.8671875 C-1.44298317 79.74859765 -2.55828487 78.63044971 -3.67401123 77.51272583 C-6.60470609 74.57440675 -9.52934422 71.63013045 -12.45275879 68.68457031 C-15.43882725 65.67801738 -18.43058859 62.67714118 -21.421875 59.67578125 C-27.28683456 53.78939314 -33.14540732 47.896699 -39 42 C-37.59832763 38.82561707 -35.94624673 36.70601641 -33.48413086 34.27294922 C-32.76676254 33.55895966 -32.04939423 32.84497009 -31.31028748 32.10934448 C-30.53629105 31.34880768 -29.76229462 30.58827087 -28.96484375 29.8046875 C-27.77405968 28.62170578 -27.77405968 28.62170578 -26.55921936 27.41482544 C-24.0233426 24.89676055 -21.48088208 22.38548213 -18.9375 19.875 C-16.39142771 17.35651636 -13.84681279 14.83660341 -11.30506897 12.31375122 C-9.72303024 10.74399988 -8.13832669 9.17692895 -6.55076599 7.61276245 C-5.47944176 6.55123459 -5.47944176 6.55123459 -4.38647461 5.46826172 C-3.7551915 4.84523163 -3.12390839 4.22220154 -2.47349548 3.58029175 C-0.90689521 2.04952185 -0.90689521 2.04952185 0 0 Z " fill="#FDFDFE" transform="translate(1076,283)"/>
<path d="M0 0 C6.36508567 5.24820057 12.15322975 11.02471452 17.96484375 16.8671875 C19.00837079 17.91258325 20.05212152 18.95775575 21.09608459 20.00271606 C23.82230745 22.7327284 26.54551181 25.46573193 29.26806641 28.19940186 C32.05512459 30.99675154 34.84507146 33.79121701 37.63476562 36.5859375 C43.09265081 42.05449694 48.54734559 47.52622445 54 53 C49.56583328 58.31068805 44.88483314 63.24836617 39.9765625 68.12109375 C39.23038666 68.86585464 38.48421082 69.61061554 37.71542358 70.37794495 C35.35430611 72.73350827 32.98971838 75.08555216 30.625 77.4375 C29.01409144 79.04338763 27.40341204 80.64950516 25.79296875 82.25585938 C21.86462487 86.17323513 17.93343326 90.08773487 14 94 C10.81058851 92.48123262 8.66753164 90.91059243 6.1875 88.375 C5.56230469 87.74335937 4.93710937 87.11171875 4.29296875 86.4609375 C2.43435069 84.46616854 0.65352947 82.44078139 -1.12207031 80.37353516 C-5.01611058 75.9167052 -9.14147851 71.73115948 -13.33984375 67.5625 C-14.10680069 66.79695801 -14.87375763 66.03141602 -15.66395569 65.24267578 C-18.08610881 62.82606803 -20.51173612 60.41298274 -22.9375 58 C-24.59202893 56.35049314 -26.24632802 54.70075571 -27.90039062 53.05078125 C-31.93094202 49.03118629 -35.96434272 45.01446831 -40 41 C-35.56583328 35.68931195 -30.88483314 30.75163383 -25.9765625 25.87890625 C-25.23038666 25.13414536 -24.48421082 24.38938446 -23.71542358 23.62205505 C-21.35430611 21.26649173 -18.98971838 18.91444784 -16.625 16.5625 C-15.01409144 14.95661237 -13.40341204 13.35049484 -11.79296875 11.74414062 C-7.86462487 7.82676487 -3.93343326 3.91226513 0 0 Z " fill="#FEFEFE" transform="translate(926,434)"/>
<path d="M0 0 C3.78301227 1.56943684 6.17256547 3.93101277 9.04394531 6.81689453 C9.53220795 7.30486511 10.02047058 7.79283569 10.52352905 8.29559326 C12.12984962 9.90330275 13.72897713 11.51797101 15.328125 13.1328125 C16.44298317 14.25140235 17.55828487 15.36955029 18.67401123 16.48727417 C21.60470609 19.42559325 24.52934422 22.36986955 27.45275879 25.31542969 C30.43882725 28.32198262 33.43058859 31.32285882 36.421875 34.32421875 C42.28683456 40.21060686 48.14540732 46.103301 54 52 C52.585437 55.19910443 50.88709979 57.37866392 48.43994141 59.86645508 C47.71223541 60.61014847 46.98452942 61.35384186 46.23477173 62.12007141 C45.44831268 62.91189316 44.66185364 63.7037149 43.8515625 64.51953125 C43.04262543 65.3374968 42.23368835 66.15546234 41.40023804 66.99821472 C39.68981648 68.72313312 37.9765782 70.44526237 36.26074219 72.16479492 C33.6297205 74.80775807 31.01792245 77.46879226 28.40625 80.13085938 C26.74333899 81.8032291 25.07931386 83.4744919 23.4140625 85.14453125 C22.24044662 86.3474456 22.24044662 86.3474456 21.04312134 87.57466125 C19.94210587 88.66656013 19.94210587 88.66656013 18.81884766 89.78051758 C18.17646149 90.4279744 17.53407532 91.07543121 16.8722229 91.74250793 C15 93 15 93 12.9649353 92.90005493 C10.65947489 91.84401965 9.44119597 90.6993538 7.7421875 88.81860352 C6.81792969 87.81252296 6.81792969 87.81252296 5.875 86.78611755 C5.215 86.05361282 4.555 85.32110809 3.875 84.56640625 C2.43721597 83.00453418 0.99702535 81.44487477 -0.4453125 79.88720703 C-1.19329102 79.07890442 -1.94126953 78.27060181 -2.71191406 77.43780518 C-6.39537842 73.51331601 -10.1903484 69.70389696 -14 65.90234375 C-14.74121094 65.16214996 -15.48242188 64.42195618 -16.24609375 63.65933228 C-18.49540573 61.41671322 -20.74761227 59.17702942 -23 56.9375 C-24.56534309 55.37719278 -26.13044821 53.81664679 -27.6953125 52.25585938 C-31.46082044 48.50116689 -35.22918779 44.74936504 -39 41 C-37.58098338 37.77254476 -35.87144235 35.62741893 -33.37646484 33.14941406 C-32.63584808 32.40894836 -31.89523132 31.66848267 -31.13217163 30.90557861 C-30.33316437 30.11689392 -29.5341571 29.32820923 -28.7109375 28.515625 C-27.89251373 27.70003113 -27.07408997 26.88443726 -26.23086548 26.04412842 C-23.61690027 23.44135438 -20.99606495 20.84562238 -18.375 18.25 C-16.60110546 16.4861366 -14.82766234 14.7218191 -13.0546875 12.95703125 C-8.70834858 8.63273864 -4.35634919 4.3142067 0 0 Z " fill="#FEFEFE" transform="translate(552,362)"/>
<path d="M0 0 C6.24883419 5.1810911 12.01555818 10.7996443 17.78125 16.5078125 C18.28357651 17.00481533 18.78590302 17.50181816 19.30345154 18.01388168 C21.95091025 20.63482356 24.59482943 23.2592828 27.23632812 25.88623047 C29.41958318 28.0560491 31.6099205 30.21832746 33.80664062 32.37451172 C36.47118876 34.98992151 39.12341924 37.61722839 41.76707458 40.25374985 C42.77401211 41.25396231 43.7852094 42.24990511 44.80067444 43.24145889 C46.21268712 44.62204 47.60778085 46.01986214 49.00195312 47.41845703 C49.80024536 48.20866241 50.5985376 48.9988678 51.42102051 49.8130188 C53 52 53 52 52.97499084 54.03994751 C51.76555237 56.4713169 50.33034532 58.02936107 48.39819336 59.94238281 C47.63748032 60.70286926 46.87676727 61.46335571 46.09300232 62.24688721 C44.85393883 63.46272491 44.85393883 63.46272491 43.58984375 64.703125 C42.74780899 65.54091492 41.90577423 66.37870483 41.03822327 67.24188232 C38.34493317 69.91836832 35.6414034 72.58424056 32.9375 75.25 C31.11064452 77.06181098 29.28446395 78.87430274 27.45898438 80.6875 C22.98046023 85.1329318 18.49348255 89.56969161 14 94 C7.63491433 88.75179943 1.84677025 82.97528548 -3.96484375 77.1328125 C-5.00837079 76.08741675 -6.05212152 75.04224425 -7.09608459 73.99728394 C-9.82230745 71.2672716 -12.54551181 68.53426807 -15.26806641 65.80059814 C-18.05512459 63.00324846 -20.84507146 60.20878299 -23.63476562 57.4140625 C-29.09265081 51.94550306 -34.54734559 46.47377555 -40 41 C-38.60752362 37.75951562 -37.04535929 35.93621935 -34.33398438 33.70288086 C-30.23852912 30.23388908 -26.43390007 26.56326358 -22.65625 22.75390625 C-21.67440735 21.76994118 -21.67440735 21.76994118 -20.67272949 20.76609802 C-18.61276177 18.70059855 -16.55632634 16.63162405 -14.5 14.5625 C-13.0913795 13.14885566 -11.68252733 11.73544214 -10.2734375 10.32226562 C-6.84627867 6.88416851 -3.42227981 3.44295344 0 0 Z " fill="#FEFEFE" transform="translate(851,510)"/>
<path d="M0 0 C6.36508567 5.24820057 12.15322975 11.02471452 17.96484375 16.8671875 C19.00837079 17.91258325 20.05212152 18.95775575 21.09608459 20.00271606 C23.82230745 22.7327284 26.54551181 25.46573193 29.26806641 28.19940186 C32.05512459 30.99675154 34.84507146 33.79121701 37.63476562 36.5859375 C43.09265081 42.05449694 48.54734559 47.52622445 54 53 C49.56583328 58.31068805 44.88483314 63.24836617 39.9765625 68.12109375 C39.23038666 68.86585464 38.48421082 69.61061554 37.71542358 70.37794495 C35.35430611 72.73350827 32.98971838 75.08555216 30.625 77.4375 C29.01409144 79.04338763 27.40341204 80.64950516 25.79296875 82.25585938 C21.86462487 86.17323513 17.93343326 90.08773487 14 94 C7.63491433 88.75179943 1.84677025 82.97528548 -3.96484375 77.1328125 C-5.00837079 76.08741675 -6.05212152 75.04224425 -7.09608459 73.99728394 C-9.82230745 71.2672716 -12.54551181 68.53426807 -15.26806641 65.80059814 C-18.05512459 63.00324846 -20.84507146 60.20878299 -23.63476562 57.4140625 C-29.09265081 51.94550306 -34.54734559 46.47377555 -40 41 C-35.56583328 35.68931195 -30.88483314 30.75163383 -25.9765625 25.87890625 C-25.23038666 25.13414536 -24.48421082 24.38938446 -23.71542358 23.62205505 C-21.35430611 21.26649173 -18.98971838 18.91444784 -16.625 16.5625 C-15.01409144 14.95661237 -13.40341204 13.35049484 -11.79296875 11.74414062 C-7.86462487 7.82676487 -3.93343326 3.91226513 0 0 Z " fill="#FEFEFE" transform="translate(1273,468)"/>
<path d="M0 0 C6.36508567 5.24820057 12.15322975 11.02471452 17.96484375 16.8671875 C19.00837079 17.91258325 20.05212152 18.95775575 21.09608459 20.00271606 C23.82230745 22.7327284 26.54551181 25.46573193 29.26806641 28.19940186 C32.05512459 30.99675154 34.84507146 33.79121701 37.63476562 36.5859375 C43.09265081 42.05449694 48.54734559 47.52622445 54 53 C49.56583328 58.31068805 44.88483314 63.24836617 39.9765625 68.12109375 C39.23038666 68.86585464 38.48421082 69.61061554 37.71542358 70.37794495 C35.35430611 72.73350827 32.98971838 75.08555216 30.625 77.4375 C29.01409144 79.04338763 27.40341204 80.64950516 25.79296875 82.25585938 C21.86462487 86.17323513 17.93343326 90.08773487 14 94 C7.63491433 88.75179943 1.84677025 82.97528548 -3.96484375 77.1328125 C-5.00837079 76.08741675 -6.05212152 75.04224425 -7.09608459 73.99728394 C-9.82230745 71.2672716 -12.54551181 68.53426807 -15.26806641 65.80059814 C-18.05512459 63.00324846 -20.84507146 60.20878299 -23.63476562 57.4140625 C-29.09265081 51.94550306 -34.54734559 46.47377555 -40 41 C-35.56583328 35.68931195 -30.88483314 30.75163383 -25.9765625 25.87890625 C-25.23038666 25.13414536 -24.48421082 24.38938446 -23.71542358 23.62205505 C-21.35430611 21.26649173 -18.98971838 18.91444784 -16.625 16.5625 C-15.01409144 14.95661237 -13.40341204 13.35049484 -11.79296875 11.74414062 C-7.86462487 7.82676487 -3.93343326 3.91226513 0 0 Z " fill="#FEFEFE" transform="translate(778,135)"/>
<path d="M0 0 C3.78301227 1.56943684 6.17256547 3.93101277 9.04394531 6.81689453 C9.53220795 7.30486511 10.02047058 7.79283569 10.52352905 8.29559326 C12.12984962 9.90330275 13.72897713 11.51797101 15.328125 13.1328125 C16.44298317 14.25140235 17.55828487 15.36955029 18.67401123 16.48727417 C21.60470609 19.42559325 24.52934422 22.36986955 27.45275879 25.31542969 C30.43882725 28.32198262 33.43058859 31.32285882 36.421875 34.32421875 C42.28683456 40.21060686 48.14540732 46.103301 54 52 C52.58098338 55.22745524 50.87144235 57.37258107 48.37646484 59.85058594 C47.63584808 60.59105164 46.89523132 61.33151733 46.13217163 62.09442139 C44.93366074 63.27744843 44.93366074 63.27744843 43.7109375 64.484375 C42.89251373 65.29996887 42.07408997 66.11556274 41.23086548 66.95587158 C38.61690027 69.55864562 35.99606495 72.15437762 33.375 74.75 C31.60110546 76.5138634 29.82766234 78.2781809 28.0546875 80.04296875 C23.70834858 84.36726136 19.35634919 88.6857933 15 93 C11.21698773 91.43056316 8.82743453 89.06898723 5.95605469 86.18310547 C5.46779205 85.69513489 4.97952942 85.20716431 4.47647095 84.70440674 C2.87015038 83.09669725 1.27102287 81.48202899 -0.328125 79.8671875 C-1.44298317 78.74859765 -2.55828487 77.63044971 -3.67401123 76.51272583 C-6.60470609 73.57440675 -9.52934422 70.63013045 -12.45275879 67.68457031 C-15.43882725 64.67801738 -18.43058859 61.67714118 -21.421875 58.67578125 C-27.28683456 52.78939314 -33.14540732 46.896699 -39 41 C-37.58098338 37.77254476 -35.87144235 35.62741893 -33.37646484 33.14941406 C-32.63584808 32.40894836 -31.89523132 31.66848267 -31.13217163 30.90557861 C-30.33316437 30.11689392 -29.5341571 29.32820923 -28.7109375 28.515625 C-27.89251373 27.70003113 -27.07408997 26.88443726 -26.23086548 26.04412842 C-23.61690027 23.44135438 -20.99606495 20.84562238 -18.375 18.25 C-16.60110546 16.4861366 -14.82766234 14.7218191 -13.0546875 12.95703125 C-8.70834858 8.63273864 -4.35634919 4.3142067 0 0 Z " fill="#FEFEFE" transform="translate(775,586)"/>
<path d="M0 0 C3.78301227 1.56943684 6.17256547 3.93101277 9.04394531 6.81689453 C9.53220795 7.30486511 10.02047058 7.79283569 10.52352905 8.29559326 C12.12984962 9.90330275 13.72897713 11.51797101 15.328125 13.1328125 C16.44298317 14.25140235 17.55828487 15.36955029 18.67401123 16.48727417 C21.60470609 19.42559325 24.52934422 22.36986955 27.45275879 25.31542969 C30.43882725 28.32198262 33.43058859 31.32285882 36.421875 34.32421875 C42.28683456 40.21060686 48.14540732 46.103301 54 52 C52.58098338 55.22745524 50.87144235 57.37258107 48.37646484 59.85058594 C47.63584808 60.59105164 46.89523132 61.33151733 46.13217163 62.09442139 C44.93366074 63.27744843 44.93366074 63.27744843 43.7109375 64.484375 C42.89251373 65.29996887 42.07408997 66.11556274 41.23086548 66.95587158 C38.61690027 69.55864562 35.99606495 72.15437762 33.375 74.75 C31.60110546 76.5138634 29.82766234 78.2781809 28.0546875 80.04296875 C23.70834858 84.36726136 19.35634919 88.6857933 15 93 C11.21698773 91.43056316 8.82743453 89.06898723 5.95605469 86.18310547 C5.46779205 85.69513489 4.97952942 85.20716431 4.47647095 84.70440674 C2.87015038 83.09669725 1.27102287 81.48202899 -0.328125 79.8671875 C-1.44298317 78.74859765 -2.55828487 77.63044971 -3.67401123 76.51272583 C-6.60470609 73.57440675 -9.52934422 70.63013045 -12.45275879 67.68457031 C-15.43882725 64.67801738 -18.43058859 61.67714118 -21.421875 58.67578125 C-27.28683456 52.78939314 -33.14540732 46.896699 -39 41 C-37.58098338 37.77254476 -35.87144235 35.62741893 -33.37646484 33.14941406 C-32.63584808 32.40894836 -31.89523132 31.66848267 -31.13217163 30.90557861 C-30.33316437 30.11689392 -29.5341571 29.32820923 -28.7109375 28.515625 C-27.89251373 27.70003113 -27.07408997 26.88443726 -26.23086548 26.04412842 C-23.61690027 23.44135438 -20.99606495 20.84562238 -18.375 18.25 C-16.60110546 16.4861366 -14.82766234 14.7218191 -13.0546875 12.95703125 C-8.70834858 8.63273864 -4.35634919 4.3142067 0 0 Z " fill="#FEFEFE" transform="translate(1197,544)"/>
<path d="M0 0 C3.78301227 1.56943684 6.17256547 3.93101277 9.04394531 6.81689453 C9.53220795 7.30486511 10.02047058 7.79283569 10.52352905 8.29559326 C12.12984962 9.90330275 13.72897713 11.51797101 15.328125 13.1328125 C16.44298317 14.25140235 17.55828487 15.36955029 18.67401123 16.48727417 C21.60470609 19.42559325 24.52934422 22.36986955 27.45275879 25.31542969 C30.43882725 28.32198262 33.43058859 31.32285882 36.421875 34.32421875 C42.28683456 40.21060686 48.14540732 46.103301 54 52 C52.58098338 55.22745524 50.87144235 57.37258107 48.37646484 59.85058594 C47.63584808 60.59105164 46.89523132 61.33151733 46.13217163 62.09442139 C44.93366074 63.27744843 44.93366074 63.27744843 43.7109375 64.484375 C42.89251373 65.29996887 42.07408997 66.11556274 41.23086548 66.95587158 C38.61690027 69.55864562 35.99606495 72.15437762 33.375 74.75 C31.60110546 76.5138634 29.82766234 78.2781809 28.0546875 80.04296875 C23.70834858 84.36726136 19.35634919 88.6857933 15 93 C11.21698773 91.43056316 8.82743453 89.06898723 5.95605469 86.18310547 C5.46779205 85.69513489 4.97952942 85.20716431 4.47647095 84.70440674 C2.87015038 83.09669725 1.27102287 81.48202899 -0.328125 79.8671875 C-1.44298317 78.74859765 -2.55828487 77.63044971 -3.67401123 76.51272583 C-6.60470609 73.57440675 -9.52934422 70.63013045 -12.45275879 67.68457031 C-15.43882725 64.67801738 -18.43058859 61.67714118 -21.421875 58.67578125 C-27.28683456 52.78939314 -33.14540732 46.896699 -39 41 C-37.58098338 37.77254476 -35.87144235 35.62741893 -33.37646484 33.14941406 C-32.63584808 32.40894836 -31.89523132 31.66848267 -31.13217163 30.90557861 C-30.33316437 30.11689392 -29.5341571 29.32820923 -28.7109375 28.515625 C-27.89251373 27.70003113 -27.07408997 26.88443726 -26.23086548 26.04412842 C-23.61690027 23.44135438 -20.99606495 20.84562238 -18.375 18.25 C-16.60110546 16.4861366 -14.82766234 14.7218191 -13.0546875 12.95703125 C-8.70834858 8.63273864 -4.35634919 4.3142067 0 0 Z " fill="#FEFEFE" transform="translate(1348,393)"/>
<path d="M0 0 C3.78301227 1.56943684 6.17256547 3.93101277 9.04394531 6.81689453 C9.53220795 7.30486511 10.02047058 7.79283569 10.52352905 8.29559326 C12.12984962 9.90330275 13.72897713 11.51797101 15.328125 13.1328125 C16.44298317 14.25140235 17.55828487 15.36955029 18.67401123 16.48727417 C21.60470609 19.42559325 24.52934422 22.36986955 27.45275879 25.31542969 C30.43882725 28.32198262 33.43058859 31.32285882 36.421875 34.32421875 C42.28683456 40.21060686 48.14540732 46.103301 54 52 C52.58098338 55.22745524 50.87144235 57.37258107 48.37646484 59.85058594 C47.63584808 60.59105164 46.89523132 61.33151733 46.13217163 62.09442139 C44.93366074 63.27744843 44.93366074 63.27744843 43.7109375 64.484375 C42.89251373 65.29996887 42.07408997 66.11556274 41.23086548 66.95587158 C38.61690027 69.55864562 35.99606495 72.15437762 33.375 74.75 C31.60110546 76.5138634 29.82766234 78.2781809 28.0546875 80.04296875 C23.70834858 84.36726136 19.35634919 88.6857933 15 93 C11.21698773 91.43056316 8.82743453 89.06898723 5.95605469 86.18310547 C5.46779205 85.69513489 4.97952942 85.20716431 4.47647095 84.70440674 C2.87015038 83.09669725 1.27102287 81.48202899 -0.328125 79.8671875 C-1.44298317 78.74859765 -2.55828487 77.63044971 -3.67401123 76.51272583 C-6.60470609 73.57440675 -9.52934422 70.63013045 -12.45275879 67.68457031 C-15.43882725 64.67801738 -18.43058859 61.67714118 -21.421875 58.67578125 C-27.28683456 52.78939314 -33.14540732 46.896699 -39 41 C-37.58098338 37.77254476 -35.87144235 35.62741893 -33.37646484 33.14941406 C-32.63584808 32.40894836 -31.89523132 31.66848267 -31.13217163 30.90557861 C-30.33316437 30.11689392 -29.5341571 29.32820923 -28.7109375 28.515625 C-27.89251373 27.70003113 -27.07408997 26.88443726 -26.23086548 26.04412842 C-23.61690027 23.44135438 -20.99606495 20.84562238 -18.375 18.25 C-16.60110546 16.4861366 -14.82766234 14.7218191 -13.0546875 12.95703125 C-8.70834858 8.63273864 -4.35634919 4.3142067 0 0 Z " fill="#FEFEFE" transform="translate(853,60)"/>
</svg>
